<mxfile host="app.diagrams.net" modified="2024-05-14T23:49:23.053Z" agent="Mozilla/5.0 (Windows NT 10.0; Win64; x64) AppleWebKit/537.36 (KHTML, like Gecko) Chrome/124.0.0.0 Safari/537.36" etag="W9pvOpa_4OTCVlwpyNxj" version="24.4.0" type="google" pages="3">
  <diagram name="authors" id="T96CJqUpFmcvmQApZHkg">
    <mxGraphModel dx="1347" dy="1118" grid="0" gridSize="10" guides="1" tooltips="1" connect="1" arrows="1" fold="1" page="0" pageScale="1" pageWidth="827" pageHeight="1169" math="0" shadow="0">
      <root>
        <mxCell id="0" />
        <mxCell id="1" parent="0" />
        <mxCell id="5Wc95C0LfoKz98BQFIxt-1" style="edgeStyle=none;curved=1;rounded=0;orthogonalLoop=1;jettySize=auto;html=1;exitX=0;exitY=0.5;exitDx=0;exitDy=0;fontSize=12;startSize=8;endSize=8;" edge="1" parent="1" source="5Wc95C0LfoKz98BQFIxt-2" target="5Wc95C0LfoKz98BQFIxt-4">
          <mxGeometry relative="1" as="geometry" />
        </mxCell>
        <mxCell id="5Wc95C0LfoKz98BQFIxt-2" value="&lt;font style=&quot;font-size: 16px;&quot;&gt;author 1&lt;/font&gt;" style="ellipse;whiteSpace=wrap;html=1;aspect=fixed;" vertex="1" parent="1">
          <mxGeometry x="148" y="46" width="80" height="80" as="geometry" />
        </mxCell>
        <mxCell id="5Wc95C0LfoKz98BQFIxt-3" style="edgeStyle=none;curved=1;rounded=0;orthogonalLoop=1;jettySize=auto;html=1;exitX=0.5;exitY=1;exitDx=0;exitDy=0;fontSize=12;startSize=8;endSize=8;" edge="1" parent="1" source="5Wc95C0LfoKz98BQFIxt-4" target="5Wc95C0LfoKz98BQFIxt-18">
          <mxGeometry relative="1" as="geometry" />
        </mxCell>
        <mxCell id="5Wc95C0LfoKz98BQFIxt-4" value="&lt;font style=&quot;font-size: 16px;&quot;&gt;author 2&lt;/font&gt;" style="ellipse;whiteSpace=wrap;html=1;aspect=fixed;" vertex="1" parent="1">
          <mxGeometry x="36" y="53" width="80" height="80" as="geometry" />
        </mxCell>
        <mxCell id="5Wc95C0LfoKz98BQFIxt-5" style="edgeStyle=none;curved=1;rounded=0;orthogonalLoop=1;jettySize=auto;html=1;exitX=0;exitY=0.5;exitDx=0;exitDy=0;fontSize=12;startSize=8;endSize=8;" edge="1" parent="1" source="5Wc95C0LfoKz98BQFIxt-7" target="5Wc95C0LfoKz98BQFIxt-2">
          <mxGeometry relative="1" as="geometry" />
        </mxCell>
        <mxCell id="5Wc95C0LfoKz98BQFIxt-6" style="edgeStyle=none;curved=1;rounded=0;orthogonalLoop=1;jettySize=auto;html=1;exitX=1;exitY=0.5;exitDx=0;exitDy=0;fontSize=12;startSize=8;endSize=8;" edge="1" parent="1" source="5Wc95C0LfoKz98BQFIxt-7" target="5Wc95C0LfoKz98BQFIxt-14">
          <mxGeometry relative="1" as="geometry" />
        </mxCell>
        <mxCell id="5Wc95C0LfoKz98BQFIxt-7" value="&lt;font style=&quot;font-size: 16px;&quot;&gt;author 3&lt;/font&gt;" style="ellipse;whiteSpace=wrap;html=1;aspect=fixed;" vertex="1" parent="1">
          <mxGeometry x="273" y="41" width="80" height="80" as="geometry" />
        </mxCell>
        <mxCell id="5Wc95C0LfoKz98BQFIxt-8" style="edgeStyle=none;curved=1;rounded=0;orthogonalLoop=1;jettySize=auto;html=1;exitX=1;exitY=0.5;exitDx=0;exitDy=0;fontSize=12;startSize=8;endSize=8;" edge="1" parent="1" source="5Wc95C0LfoKz98BQFIxt-9" target="5Wc95C0LfoKz98BQFIxt-4">
          <mxGeometry relative="1" as="geometry" />
        </mxCell>
        <mxCell id="5Wc95C0LfoKz98BQFIxt-9" value="&lt;font style=&quot;font-size: 16px;&quot;&gt;author 4&lt;/font&gt;" style="ellipse;whiteSpace=wrap;html=1;aspect=fixed;" vertex="1" parent="1">
          <mxGeometry x="-95" y="59" width="80" height="80" as="geometry" />
        </mxCell>
        <mxCell id="5Wc95C0LfoKz98BQFIxt-10" style="edgeStyle=none;curved=1;rounded=0;orthogonalLoop=1;jettySize=auto;html=1;exitX=1;exitY=0.5;exitDx=0;exitDy=0;entryX=0;entryY=0.5;entryDx=0;entryDy=0;fontSize=12;startSize=8;endSize=8;" edge="1" parent="1" source="5Wc95C0LfoKz98BQFIxt-11" target="5Wc95C0LfoKz98BQFIxt-9">
          <mxGeometry relative="1" as="geometry" />
        </mxCell>
        <mxCell id="5Wc95C0LfoKz98BQFIxt-11" value="&lt;font style=&quot;font-size: 16px;&quot;&gt;author 5&lt;/font&gt;" style="ellipse;whiteSpace=wrap;html=1;aspect=fixed;" vertex="1" parent="1">
          <mxGeometry x="-217" y="59" width="80" height="80" as="geometry" />
        </mxCell>
        <mxCell id="5Wc95C0LfoKz98BQFIxt-12" style="edgeStyle=none;curved=1;rounded=0;orthogonalLoop=1;jettySize=auto;html=1;exitX=1;exitY=0.5;exitDx=0;exitDy=0;fontSize=12;startSize=8;endSize=8;" edge="1" parent="1" source="5Wc95C0LfoKz98BQFIxt-14" target="5Wc95C0LfoKz98BQFIxt-15">
          <mxGeometry relative="1" as="geometry" />
        </mxCell>
        <mxCell id="5Wc95C0LfoKz98BQFIxt-13" style="edgeStyle=none;curved=1;rounded=0;orthogonalLoop=1;jettySize=auto;html=1;exitX=0.5;exitY=1;exitDx=0;exitDy=0;entryX=1;entryY=0;entryDx=0;entryDy=0;fontSize=12;startSize=8;endSize=8;" edge="1" parent="1" source="5Wc95C0LfoKz98BQFIxt-14" target="5Wc95C0LfoKz98BQFIxt-17">
          <mxGeometry relative="1" as="geometry" />
        </mxCell>
        <mxCell id="5Wc95C0LfoKz98BQFIxt-14" value="&lt;font style=&quot;font-size: 16px;&quot;&gt;author 6&lt;/font&gt;" style="ellipse;whiteSpace=wrap;html=1;aspect=fixed;" vertex="1" parent="1">
          <mxGeometry x="421" y="34" width="80" height="80" as="geometry" />
        </mxCell>
        <mxCell id="5Wc95C0LfoKz98BQFIxt-15" value="&lt;font style=&quot;font-size: 16px;&quot;&gt;author 7&lt;/font&gt;" style="ellipse;whiteSpace=wrap;html=1;aspect=fixed;" vertex="1" parent="1">
          <mxGeometry x="554" y="23" width="80" height="80" as="geometry" />
        </mxCell>
        <mxCell id="5Wc95C0LfoKz98BQFIxt-16" style="edgeStyle=none;curved=1;rounded=0;orthogonalLoop=1;jettySize=auto;html=1;exitX=0;exitY=0;exitDx=0;exitDy=0;entryX=1;entryY=1;entryDx=0;entryDy=0;fontSize=12;startSize=8;endSize=8;" edge="1" parent="1" source="5Wc95C0LfoKz98BQFIxt-17" target="5Wc95C0LfoKz98BQFIxt-7">
          <mxGeometry relative="1" as="geometry" />
        </mxCell>
        <mxCell id="5Wc95C0LfoKz98BQFIxt-17" value="&lt;font style=&quot;font-size: 16px;&quot;&gt;author 8&lt;/font&gt;" style="ellipse;whiteSpace=wrap;html=1;aspect=fixed;" vertex="1" parent="1">
          <mxGeometry x="364" y="167" width="80" height="80" as="geometry" />
        </mxCell>
        <mxCell id="5Wc95C0LfoKz98BQFIxt-18" value="&lt;font style=&quot;font-size: 16px;&quot;&gt;author 9&lt;/font&gt;" style="ellipse;whiteSpace=wrap;html=1;aspect=fixed;" vertex="1" parent="1">
          <mxGeometry x="42" y="174" width="80" height="80" as="geometry" />
        </mxCell>
        <mxCell id="5Wc95C0LfoKz98BQFIxt-19" style="edgeStyle=none;curved=1;rounded=0;orthogonalLoop=1;jettySize=auto;html=1;entryX=0;entryY=0.5;entryDx=0;entryDy=0;fontSize=12;startSize=8;endSize=8;exitX=0.988;exitY=0.55;exitDx=0;exitDy=0;exitPerimeter=0;" edge="1" parent="1" source="5Wc95C0LfoKz98BQFIxt-20" target="5Wc95C0LfoKz98BQFIxt-11">
          <mxGeometry relative="1" as="geometry">
            <mxPoint x="70" y="270" as="sourcePoint" />
          </mxGeometry>
        </mxCell>
        <mxCell id="5Wc95C0LfoKz98BQFIxt-20" value="&lt;font style=&quot;font-size: 16px;&quot;&gt;author 10&lt;/font&gt;" style="ellipse;whiteSpace=wrap;html=1;aspect=fixed;" vertex="1" parent="1">
          <mxGeometry x="-348" y="62" width="80" height="80" as="geometry" />
        </mxCell>
      </root>
    </mxGraphModel>
  </diagram>
  <diagram id="2OR5KeC3XGPrhZrbSG9s" name="articles">
    <mxGraphModel dx="2689" dy="1357" grid="0" gridSize="10" guides="1" tooltips="1" connect="1" arrows="1" fold="1" page="0" pageScale="1" pageWidth="827" pageHeight="1169" math="0" shadow="0">
      <root>
        <mxCell id="0" />
        <mxCell id="1" parent="0" />
        <mxCell id="MDXiR_3emD2r9tyKMgHi-1" value="&lt;span style=&quot;font-size: 16px;&quot;&gt;article 1&lt;/span&gt;" style="ellipse;whiteSpace=wrap;html=1;aspect=fixed;" vertex="1" parent="1">
          <mxGeometry x="-683" y="512" width="80" height="80" as="geometry" />
        </mxCell>
        <mxCell id="MDXiR_3emD2r9tyKMgHi-2" value="&lt;span style=&quot;font-size: 16px;&quot;&gt;article 2&lt;/span&gt;" style="ellipse;whiteSpace=wrap;html=1;aspect=fixed;" vertex="1" parent="1">
          <mxGeometry x="-460" y="516" width="80" height="80" as="geometry" />
        </mxCell>
        <mxCell id="MDXiR_3emD2r9tyKMgHi-3" value="&lt;span style=&quot;font-size: 16px;&quot;&gt;article 3&lt;/span&gt;" style="ellipse;whiteSpace=wrap;html=1;aspect=fixed;" vertex="1" parent="1">
          <mxGeometry x="-287" y="523" width="80" height="80" as="geometry" />
        </mxCell>
        <mxCell id="MDXiR_3emD2r9tyKMgHi-4" value="&lt;span style=&quot;font-size: 16px;&quot;&gt;article 4&lt;/span&gt;" style="ellipse;whiteSpace=wrap;html=1;aspect=fixed;" vertex="1" parent="1">
          <mxGeometry x="31" y="527" width="80" height="80" as="geometry" />
        </mxCell>
        <mxCell id="MDXiR_3emD2r9tyKMgHi-5" value="&lt;span style=&quot;font-size: 16px;&quot;&gt;article 9&lt;/span&gt;" style="ellipse;whiteSpace=wrap;html=1;aspect=fixed;" vertex="1" parent="1">
          <mxGeometry x="-867" y="512" width="80" height="80" as="geometry" />
        </mxCell>
        <mxCell id="MDXiR_3emD2r9tyKMgHi-6" style="edgeStyle=none;curved=1;rounded=0;orthogonalLoop=1;jettySize=auto;html=1;exitX=0.5;exitY=0;exitDx=0;exitDy=0;entryX=0.5;entryY=1;entryDx=0;entryDy=0;fontSize=12;startSize=8;endSize=8;" edge="1" parent="1" source="MDXiR_3emD2r9tyKMgHi-8" target="MDXiR_3emD2r9tyKMgHi-1">
          <mxGeometry relative="1" as="geometry" />
        </mxCell>
        <mxCell id="MDXiR_3emD2r9tyKMgHi-7" style="edgeStyle=none;curved=1;rounded=0;orthogonalLoop=1;jettySize=auto;html=1;exitX=0.5;exitY=0;exitDx=0;exitDy=0;fontSize=12;startSize=8;endSize=8;entryX=0.5;entryY=1;entryDx=0;entryDy=0;" edge="1" parent="1" source="MDXiR_3emD2r9tyKMgHi-8" target="MDXiR_3emD2r9tyKMgHi-5">
          <mxGeometry relative="1" as="geometry" />
        </mxCell>
        <mxCell id="MDXiR_3emD2r9tyKMgHi-8" value="&lt;span style=&quot;font-size: 16px;&quot;&gt;author 1&lt;/span&gt;" style="whiteSpace=wrap;html=1;aspect=fixed;" vertex="1" parent="1">
          <mxGeometry x="-807" y="655" width="80" height="80" as="geometry" />
        </mxCell>
        <mxCell id="MDXiR_3emD2r9tyKMgHi-9" style="edgeStyle=none;curved=1;rounded=0;orthogonalLoop=1;jettySize=auto;html=1;exitX=0.5;exitY=0;exitDx=0;exitDy=0;entryX=0.5;entryY=1;entryDx=0;entryDy=0;fontSize=12;startSize=8;endSize=8;" edge="1" parent="1" source="MDXiR_3emD2r9tyKMgHi-10" target="MDXiR_3emD2r9tyKMgHi-2">
          <mxGeometry relative="1" as="geometry" />
        </mxCell>
        <mxCell id="MDXiR_3emD2r9tyKMgHi-10" value="&lt;span style=&quot;font-size: 16px;&quot;&gt;author 2&lt;/span&gt;" style="whiteSpace=wrap;html=1;aspect=fixed;" vertex="1" parent="1">
          <mxGeometry x="-460" y="663" width="80" height="80" as="geometry" />
        </mxCell>
        <mxCell id="MDXiR_3emD2r9tyKMgHi-11" style="edgeStyle=none;curved=1;rounded=0;orthogonalLoop=1;jettySize=auto;html=1;exitX=0.5;exitY=0;exitDx=0;exitDy=0;entryX=0;entryY=1;entryDx=0;entryDy=0;fontSize=12;startSize=8;endSize=8;" edge="1" parent="1" source="MDXiR_3emD2r9tyKMgHi-12" target="MDXiR_3emD2r9tyKMgHi-3">
          <mxGeometry relative="1" as="geometry" />
        </mxCell>
        <mxCell id="MDXiR_3emD2r9tyKMgHi-12" value="&lt;span style=&quot;font-size: 16px;&quot;&gt;author 3&lt;/span&gt;" style="whiteSpace=wrap;html=1;aspect=fixed;" vertex="1" parent="1">
          <mxGeometry x="-360" y="663" width="80" height="80" as="geometry" />
        </mxCell>
        <mxCell id="MDXiR_3emD2r9tyKMgHi-13" style="edgeStyle=none;curved=1;rounded=0;orthogonalLoop=1;jettySize=auto;html=1;exitX=0.5;exitY=0;exitDx=0;exitDy=0;entryX=1;entryY=1;entryDx=0;entryDy=0;fontSize=12;startSize=8;endSize=8;" edge="1" parent="1" source="MDXiR_3emD2r9tyKMgHi-14" target="MDXiR_3emD2r9tyKMgHi-3">
          <mxGeometry relative="1" as="geometry" />
        </mxCell>
        <mxCell id="MDXiR_3emD2r9tyKMgHi-14" value="&lt;span style=&quot;font-size: 16px;&quot;&gt;author 4&lt;/span&gt;" style="whiteSpace=wrap;html=1;aspect=fixed;" vertex="1" parent="1">
          <mxGeometry x="-226" y="663" width="80" height="80" as="geometry" />
        </mxCell>
        <mxCell id="MDXiR_3emD2r9tyKMgHi-15" style="edgeStyle=none;curved=1;rounded=0;orthogonalLoop=1;jettySize=auto;html=1;exitX=0.5;exitY=0;exitDx=0;exitDy=0;entryX=0.5;entryY=1;entryDx=0;entryDy=0;fontSize=12;startSize=8;endSize=8;" edge="1" parent="1" source="MDXiR_3emD2r9tyKMgHi-16" target="MDXiR_3emD2r9tyKMgHi-1">
          <mxGeometry relative="1" as="geometry" />
        </mxCell>
        <mxCell id="MDXiR_3emD2r9tyKMgHi-16" value="&lt;span style=&quot;font-size: 16px;&quot;&gt;author 5&lt;/span&gt;" style="whiteSpace=wrap;html=1;aspect=fixed;" vertex="1" parent="1">
          <mxGeometry x="-716" y="650" width="80" height="80" as="geometry" />
        </mxCell>
        <mxCell id="MDXiR_3emD2r9tyKMgHi-17" style="edgeStyle=none;curved=1;rounded=0;orthogonalLoop=1;jettySize=auto;html=1;exitX=0.5;exitY=0;exitDx=0;exitDy=0;entryX=0.5;entryY=1;entryDx=0;entryDy=0;fontSize=12;startSize=8;endSize=8;" edge="1" parent="1" source="MDXiR_3emD2r9tyKMgHi-18" target="MDXiR_3emD2r9tyKMgHi-4">
          <mxGeometry relative="1" as="geometry" />
        </mxCell>
        <mxCell id="MDXiR_3emD2r9tyKMgHi-18" value="&lt;span style=&quot;font-size: 16px;&quot;&gt;author 6&lt;/span&gt;" style="whiteSpace=wrap;html=1;aspect=fixed;" vertex="1" parent="1">
          <mxGeometry x="-110" y="663" width="80" height="80" as="geometry" />
        </mxCell>
        <mxCell id="MDXiR_3emD2r9tyKMgHi-19" style="edgeStyle=none;curved=1;rounded=0;orthogonalLoop=1;jettySize=auto;html=1;exitX=0.5;exitY=0;exitDx=0;exitDy=0;fontSize=12;startSize=8;endSize=8;" edge="1" parent="1" source="MDXiR_3emD2r9tyKMgHi-20" target="MDXiR_3emD2r9tyKMgHi-4">
          <mxGeometry relative="1" as="geometry" />
        </mxCell>
        <mxCell id="MDXiR_3emD2r9tyKMgHi-20" value="&lt;span style=&quot;font-size: 16px;&quot;&gt;author 7&lt;/span&gt;" style="whiteSpace=wrap;html=1;aspect=fixed;" vertex="1" parent="1">
          <mxGeometry x="31" y="663" width="80" height="80" as="geometry" />
        </mxCell>
        <mxCell id="MDXiR_3emD2r9tyKMgHi-21" style="edgeStyle=none;curved=1;rounded=0;orthogonalLoop=1;jettySize=auto;html=1;exitX=0.5;exitY=0;exitDx=0;exitDy=0;entryX=0.5;entryY=1;entryDx=0;entryDy=0;fontSize=12;startSize=8;endSize=8;" edge="1" parent="1" source="MDXiR_3emD2r9tyKMgHi-22" target="MDXiR_3emD2r9tyKMgHi-1">
          <mxGeometry relative="1" as="geometry" />
        </mxCell>
        <mxCell id="MDXiR_3emD2r9tyKMgHi-22" value="&lt;span style=&quot;font-size: 16px;&quot;&gt;author 8&lt;/span&gt;" style="whiteSpace=wrap;html=1;aspect=fixed;" vertex="1" parent="1">
          <mxGeometry x="-617" y="650" width="80" height="80" as="geometry" />
        </mxCell>
        <mxCell id="MDXiR_3emD2r9tyKMgHi-23" style="edgeStyle=none;curved=1;rounded=0;orthogonalLoop=1;jettySize=auto;html=1;exitX=0.5;exitY=0;exitDx=0;exitDy=0;entryX=0.5;entryY=1;entryDx=0;entryDy=0;fontSize=12;startSize=8;endSize=8;" edge="1" parent="1" source="MDXiR_3emD2r9tyKMgHi-24" target="MDXiR_3emD2r9tyKMgHi-4">
          <mxGeometry relative="1" as="geometry" />
        </mxCell>
        <mxCell id="MDXiR_3emD2r9tyKMgHi-24" value="&lt;span style=&quot;font-size: 16px;&quot;&gt;author 9&lt;/span&gt;" style="whiteSpace=wrap;html=1;aspect=fixed;" vertex="1" parent="1">
          <mxGeometry x="170" y="663" width="80" height="80" as="geometry" />
        </mxCell>
        <mxCell id="MDXiR_3emD2r9tyKMgHi-25" style="edgeStyle=none;curved=1;rounded=0;orthogonalLoop=1;jettySize=auto;html=1;exitX=0.5;exitY=0;exitDx=0;exitDy=0;fontSize=12;startSize=8;endSize=8;entryX=0.5;entryY=1;entryDx=0;entryDy=0;" edge="1" parent="1" source="MDXiR_3emD2r9tyKMgHi-26" target="MDXiR_3emD2r9tyKMgHi-5">
          <mxGeometry relative="1" as="geometry" />
        </mxCell>
        <mxCell id="MDXiR_3emD2r9tyKMgHi-26" value="&lt;span style=&quot;font-size: 16px;&quot;&gt;author 10&lt;/span&gt;" style="whiteSpace=wrap;html=1;aspect=fixed;" vertex="1" parent="1">
          <mxGeometry x="-908" y="655" width="80" height="80" as="geometry" />
        </mxCell>
      </root>
    </mxGraphModel>
  </diagram>
  <diagram id="GbFw1Kzdju0b9iq9W6NB" name="keywords">
    <mxGraphModel dx="2758" dy="967" grid="0" gridSize="10" guides="1" tooltips="1" connect="1" arrows="1" fold="1" page="0" pageScale="1" pageWidth="827" pageHeight="1169" math="0" shadow="0">
      <root>
        <mxCell id="0" />
        <mxCell id="1" parent="0" />
        <mxCell id="6eM3JC9NzwbpSFzlxXD3-1" value="&lt;span style=&quot;font-size: 16px;&quot;&gt;keyword 1&lt;/span&gt;" style="ellipse;whiteSpace=wrap;html=1;aspect=fixed;" vertex="1" parent="1">
          <mxGeometry x="-495" y="531" width="80" height="80" as="geometry" />
        </mxCell>
        <mxCell id="6eM3JC9NzwbpSFzlxXD3-2" value="&lt;span style=&quot;font-size: 16px;&quot;&gt;keyword 6&lt;/span&gt;" style="ellipse;whiteSpace=wrap;html=1;aspect=fixed;" vertex="1" parent="1">
          <mxGeometry x="-1049" y="527" width="80" height="80" as="geometry" />
        </mxCell>
        <mxCell id="6eM3JC9NzwbpSFzlxXD3-3" value="&lt;span style=&quot;font-size: 16px;&quot;&gt;keyword 3&lt;/span&gt;" style="ellipse;whiteSpace=wrap;html=1;aspect=fixed;" vertex="1" parent="1">
          <mxGeometry x="-611" y="534" width="80" height="80" as="geometry" />
        </mxCell>
        <mxCell id="6eM3JC9NzwbpSFzlxXD3-4" value="&lt;span style=&quot;font-size: 16px;&quot;&gt;keyword 2&lt;/span&gt;" style="ellipse;whiteSpace=wrap;html=1;aspect=fixed;" vertex="1" parent="1">
          <mxGeometry x="-908" y="527" width="80" height="80" as="geometry" />
        </mxCell>
        <mxCell id="6eM3JC9NzwbpSFzlxXD3-5" style="edgeStyle=none;curved=1;rounded=0;orthogonalLoop=1;jettySize=auto;html=1;exitX=0.5;exitY=0;exitDx=0;exitDy=0;entryX=0.5;entryY=1;entryDx=0;entryDy=0;fontSize=12;startSize=8;endSize=8;" edge="1" parent="1" source="6eM3JC9NzwbpSFzlxXD3-6" target="6eM3JC9NzwbpSFzlxXD3-24">
          <mxGeometry relative="1" as="geometry" />
        </mxCell>
        <mxCell id="6eM3JC9NzwbpSFzlxXD3-6" value="&lt;span style=&quot;font-size: 16px;&quot;&gt;article 3&lt;/span&gt;" style="whiteSpace=wrap;html=1;aspect=fixed;" vertex="1" parent="1">
          <mxGeometry x="-756" y="667" width="80" height="80" as="geometry" />
        </mxCell>
        <mxCell id="6eM3JC9NzwbpSFzlxXD3-7" style="edgeStyle=none;curved=1;rounded=0;orthogonalLoop=1;jettySize=auto;html=1;exitX=0.5;exitY=0;exitDx=0;exitDy=0;entryX=0.5;entryY=1;entryDx=0;entryDy=0;fontSize=12;startSize=8;endSize=8;" edge="1" parent="1" source="6eM3JC9NzwbpSFzlxXD3-9" target="6eM3JC9NzwbpSFzlxXD3-2">
          <mxGeometry relative="1" as="geometry" />
        </mxCell>
        <mxCell id="6eM3JC9NzwbpSFzlxXD3-8" style="edgeStyle=none;curved=1;rounded=0;orthogonalLoop=1;jettySize=auto;html=1;exitX=0.5;exitY=0;exitDx=0;exitDy=0;entryX=0.5;entryY=1;entryDx=0;entryDy=0;fontSize=12;startSize=8;endSize=8;" edge="1" parent="1" source="6eM3JC9NzwbpSFzlxXD3-9" target="6eM3JC9NzwbpSFzlxXD3-26">
          <mxGeometry relative="1" as="geometry" />
        </mxCell>
        <mxCell id="6eM3JC9NzwbpSFzlxXD3-9" value="&lt;span style=&quot;font-size: 16px;&quot;&gt;article 1&lt;/span&gt;" style="whiteSpace=wrap;html=1;aspect=fixed;" vertex="1" parent="1">
          <mxGeometry x="-1113" y="663" width="80" height="80" as="geometry" />
        </mxCell>
        <mxCell id="6eM3JC9NzwbpSFzlxXD3-10" style="edgeStyle=none;curved=1;rounded=0;orthogonalLoop=1;jettySize=auto;html=1;exitX=0.5;exitY=0;exitDx=0;exitDy=0;entryX=0.5;entryY=1;entryDx=0;entryDy=0;fontSize=12;startSize=8;endSize=8;" edge="1" parent="1" source="6eM3JC9NzwbpSFzlxXD3-11" target="6eM3JC9NzwbpSFzlxXD3-25">
          <mxGeometry relative="1" as="geometry" />
        </mxCell>
        <mxCell id="6eM3JC9NzwbpSFzlxXD3-11" value="&lt;span style=&quot;font-size: 16px;&quot;&gt;article 6&lt;/span&gt;" style="whiteSpace=wrap;html=1;aspect=fixed;" vertex="1" parent="1">
          <mxGeometry x="-1360" y="667" width="80" height="80" as="geometry" />
        </mxCell>
        <mxCell id="6eM3JC9NzwbpSFzlxXD3-12" style="edgeStyle=none;curved=1;rounded=0;orthogonalLoop=1;jettySize=auto;html=1;exitX=0.5;exitY=0;exitDx=0;exitDy=0;entryX=1;entryY=1;entryDx=0;entryDy=0;fontSize=12;startSize=8;endSize=8;" edge="1" parent="1" source="6eM3JC9NzwbpSFzlxXD3-13" target="6eM3JC9NzwbpSFzlxXD3-4">
          <mxGeometry relative="1" as="geometry" />
        </mxCell>
        <mxCell id="6eM3JC9NzwbpSFzlxXD3-13" value="&lt;span style=&quot;font-size: 16px;&quot;&gt;article 7&lt;/span&gt;" style="whiteSpace=wrap;html=1;aspect=fixed;" vertex="1" parent="1">
          <mxGeometry x="-852" y="667" width="80" height="80" as="geometry" />
        </mxCell>
        <mxCell id="6eM3JC9NzwbpSFzlxXD3-14" style="edgeStyle=none;curved=1;rounded=0;orthogonalLoop=1;jettySize=auto;html=1;exitX=0.5;exitY=0;exitDx=0;exitDy=0;fontSize=12;startSize=8;endSize=8;" edge="1" parent="1" source="6eM3JC9NzwbpSFzlxXD3-15" target="6eM3JC9NzwbpSFzlxXD3-3">
          <mxGeometry relative="1" as="geometry" />
        </mxCell>
        <mxCell id="6eM3JC9NzwbpSFzlxXD3-15" value="&lt;span style=&quot;font-size: 16px;&quot;&gt;article 4&lt;/span&gt;" style="whiteSpace=wrap;html=1;aspect=fixed;" vertex="1" parent="1">
          <mxGeometry x="-615" y="670" width="80" height="80" as="geometry" />
        </mxCell>
        <mxCell id="6eM3JC9NzwbpSFzlxXD3-16" style="edgeStyle=none;curved=1;rounded=0;orthogonalLoop=1;jettySize=auto;html=1;exitX=0.5;exitY=0;exitDx=0;exitDy=0;entryX=0.5;entryY=1;entryDx=0;entryDy=0;fontSize=12;startSize=8;endSize=8;" edge="1" parent="1" source="6eM3JC9NzwbpSFzlxXD3-17" target="6eM3JC9NzwbpSFzlxXD3-27">
          <mxGeometry relative="1" as="geometry" />
        </mxCell>
        <mxCell id="6eM3JC9NzwbpSFzlxXD3-17" value="&lt;span style=&quot;font-size: 16px;&quot;&gt;article 9&lt;/span&gt;" style="whiteSpace=wrap;html=1;aspect=fixed;" vertex="1" parent="1">
          <mxGeometry x="-383" y="669" width="80" height="80" as="geometry" />
        </mxCell>
        <mxCell id="6eM3JC9NzwbpSFzlxXD3-18" style="edgeStyle=none;curved=1;rounded=0;orthogonalLoop=1;jettySize=auto;html=1;exitX=0.5;exitY=0;exitDx=0;exitDy=0;entryX=0.5;entryY=1;entryDx=0;entryDy=0;fontSize=12;startSize=8;endSize=8;" edge="1" parent="1" source="6eM3JC9NzwbpSFzlxXD3-19" target="6eM3JC9NzwbpSFzlxXD3-1">
          <mxGeometry relative="1" as="geometry" />
        </mxCell>
        <mxCell id="6eM3JC9NzwbpSFzlxXD3-19" value="&lt;span style=&quot;font-size: 16px;&quot;&gt;article 5&lt;/span&gt;" style="whiteSpace=wrap;html=1;aspect=fixed;" vertex="1" parent="1">
          <mxGeometry x="-495" y="670" width="80" height="80" as="geometry" />
        </mxCell>
        <mxCell id="6eM3JC9NzwbpSFzlxXD3-20" style="edgeStyle=none;curved=1;rounded=0;orthogonalLoop=1;jettySize=auto;html=1;exitX=0.5;exitY=0;exitDx=0;exitDy=0;entryX=0.5;entryY=1;entryDx=0;entryDy=0;fontSize=12;startSize=8;endSize=8;" edge="1" parent="1" source="6eM3JC9NzwbpSFzlxXD3-21" target="6eM3JC9NzwbpSFzlxXD3-26">
          <mxGeometry relative="1" as="geometry" />
        </mxCell>
        <mxCell id="6eM3JC9NzwbpSFzlxXD3-21" value="&lt;span style=&quot;font-size: 16px;&quot;&gt;article 10&lt;/span&gt;" style="whiteSpace=wrap;html=1;aspect=fixed;" vertex="1" parent="1">
          <mxGeometry x="-1233" y="663" width="80" height="80" as="geometry" />
        </mxCell>
        <mxCell id="6eM3JC9NzwbpSFzlxXD3-22" style="edgeStyle=none;curved=1;rounded=0;orthogonalLoop=1;jettySize=auto;html=1;exitX=0.5;exitY=0;exitDx=0;exitDy=0;fontSize=12;startSize=8;endSize=8;entryX=0;entryY=1;entryDx=0;entryDy=0;" edge="1" parent="1" source="6eM3JC9NzwbpSFzlxXD3-23" target="6eM3JC9NzwbpSFzlxXD3-4">
          <mxGeometry relative="1" as="geometry" />
        </mxCell>
        <mxCell id="6eM3JC9NzwbpSFzlxXD3-23" value="&lt;span style=&quot;font-size: 16px;&quot;&gt;article 2&lt;/span&gt;" style="whiteSpace=wrap;html=1;aspect=fixed;" vertex="1" parent="1">
          <mxGeometry x="-963" y="669" width="80" height="80" as="geometry" />
        </mxCell>
        <mxCell id="6eM3JC9NzwbpSFzlxXD3-24" value="&lt;span style=&quot;font-size: 16px;&quot;&gt;keyword 5&lt;/span&gt;" style="ellipse;whiteSpace=wrap;html=1;aspect=fixed;" vertex="1" parent="1">
          <mxGeometry x="-754" y="527" width="80" height="80" as="geometry" />
        </mxCell>
        <mxCell id="6eM3JC9NzwbpSFzlxXD3-25" value="&lt;span style=&quot;font-size: 16px;&quot;&gt;keyword 4&lt;/span&gt;" style="ellipse;whiteSpace=wrap;html=1;aspect=fixed;" vertex="1" parent="1">
          <mxGeometry x="-1360" y="534" width="80" height="80" as="geometry" />
        </mxCell>
        <mxCell id="6eM3JC9NzwbpSFzlxXD3-26" value="&lt;span style=&quot;font-size: 16px;&quot;&gt;keyword 9&lt;/span&gt;" style="ellipse;whiteSpace=wrap;html=1;aspect=fixed;" vertex="1" parent="1">
          <mxGeometry x="-1183" y="534" width="80" height="80" as="geometry" />
        </mxCell>
        <mxCell id="6eM3JC9NzwbpSFzlxXD3-27" value="&lt;span style=&quot;font-size: 16px;&quot;&gt;keyword 8&lt;/span&gt;" style="ellipse;whiteSpace=wrap;html=1;aspect=fixed;" vertex="1" parent="1">
          <mxGeometry x="-383" y="530" width="80" height="80" as="geometry" />
        </mxCell>
        <mxCell id="6eM3JC9NzwbpSFzlxXD3-28" style="edgeStyle=none;curved=1;rounded=0;orthogonalLoop=1;jettySize=auto;html=1;exitX=0.5;exitY=0;exitDx=0;exitDy=0;entryX=0.5;entryY=1;entryDx=0;entryDy=0;fontSize=12;startSize=8;endSize=8;" edge="1" parent="1" source="6eM3JC9NzwbpSFzlxXD3-29" target="6eM3JC9NzwbpSFzlxXD3-30">
          <mxGeometry relative="1" as="geometry" />
        </mxCell>
        <mxCell id="6eM3JC9NzwbpSFzlxXD3-29" value="&lt;span style=&quot;font-size: 16px;&quot;&gt;article 8&lt;/span&gt;" style="whiteSpace=wrap;html=1;aspect=fixed;" vertex="1" parent="1">
          <mxGeometry x="-1466" y="668" width="80" height="80" as="geometry" />
        </mxCell>
        <mxCell id="6eM3JC9NzwbpSFzlxXD3-30" value="&lt;span style=&quot;font-size: 16px;&quot;&gt;keyword 7&lt;/span&gt;" style="ellipse;whiteSpace=wrap;html=1;aspect=fixed;" vertex="1" parent="1">
          <mxGeometry x="-1466" y="530" width="80" height="80" as="geometry" />
        </mxCell>
      </root>
    </mxGraphModel>
  </diagram>
</mxfile>
